<svg width="100%" height="100%" viewBox="0 0 194 30" xmlns="http://www.w3.org/2000/svg">
<path d="M23.16 23.96L23.96 24.8C21.52 27.56 18.4 29 14.6 29C10.6 29 7.32 27.72 4.76 25.2C2.24 22.64 0.96 19.28 0.96 15.12C0.96 12.36 1.52 9.8 2.72 7.36C3.88 4.92 5.52 3.12 7.64 1.96C9.72 0.799998 12.04 0.199999 14.56 0.199999C16.64 0.199999 18.52 0.639998 20.2 1.48C21.84 2.32 23.08 3.24 23.92 4.24V4.36L23.12 5.12C22.68 4.44 22.12 3.88 21.56 3.44C19.64 1.96 17.52 1.24 15.16 1.24C12.24 1.24 9.92 2.44 8.2 4.8C6.48 7.16 5.64 10.52 5.64 14.92C5.64 19.08 6.56 22.28 8.44 24.52C10.32 26.72 12.64 27.84 15.44 27.84C16.92 27.84 18.44 27.48 20 26.76C21.28 26.16 22.32 25.24 23.16 23.96ZM34.6131 28.04H50.4931V29H30.4531V21.6V7.44V0.199999H34.6131V28.04ZM53.8906 14.56C53.8906 19.04 54.7706 22.36 56.5306 24.6C58.3306 26.84 60.0506 27.96 63.6106 27.96C66.7706 27.96 68.7706 26.84 70.5706 24.6C72.3706 22.36 72.8106 19.04 72.8106 14.6C72.8106 10.28 72.4106 6.96 70.6106 4.68C68.8106 2.36 66.6906 1.24 63.2906 1.24C59.9706 1.24 58.3306 2.36 56.5306 4.6C54.7706 6.84 53.8906 10.16 53.8906 14.56ZM49.1706 14.4C49.1706 10.12 50.6106 6.68 53.4906 4.08C56.3706 1.48 58.9706 0.199999 63.2906 0.199999C67.6106 0.199999 70.2906 1.48 73.1706 4.04C76.0906 6.6 77.5306 10.12 77.5306 14.56C77.5306 18.88 76.1306 22.36 73.3706 25C70.5706 27.68 67.8906 29 63.3306 29C58.9306 29 56.2506 27.68 53.4106 25C50.6106 22.36 49.1706 18.8 49.1706 14.4ZM105.163 0.199999V1.16H97.8825H93.1625V21.4V29H89.0025V21.4V1.16H84.8025H77.1225L77.1625 0.199999H105.163ZM131.247 0.199999H135.407V29H131.247V14.36H115.887V29H111.727V0.199999H115.887V13.36H131.247V0.199999ZM144.07 0.199999H148.23V7.36V21.52V29H144.07V21.52V7.36V0.199999ZM160.602 28H164.362H173.202V29H156.482V21.6V19.6V17.88V7.32V0.199999H173.282V1.16H164.442H160.602V7.36V8.2V13.36H163.522H168.922V14.36H163.642H160.602V17.88V18.52V19.6V21.6V28ZM192.716 17.96C193.236 19.2 193.396 20.52 193.236 22C192.996 24.36 191.996 26.16 190.276 27.48C188.556 28.76 186.396 29.28 183.756 29C181.116 28.72 177.636 26.6 176.076 24.04L176.836 23.2C178.996 26.28 180.636 27.48 183.516 27.96C185.436 28.24 186.996 27.8 188.196 26.8C189.356 25.84 190.036 24.64 190.156 23.28C190.316 21.92 189.996 20.72 189.156 19.68C188.316 18.68 186.716 17.52 184.356 16.2C182.276 15 180.716 14 179.636 13.16C178.596 12.32 177.836 11.32 177.316 10.12C176.836 8.92 176.636 7.68 176.796 6.4C176.996 4.44 177.836 2.88 179.356 1.72C180.836 0.559999 182.636 0.119998 184.716 0.32C185.876 0.439998 186.916 0.759999 187.916 1.24C188.916 1.72 189.876 2.64 190.836 3.92L189.956 4.64C189.716 4.28 189.436 3.92 189.156 3.6C187.996 2.24 186.556 1.48 184.836 1.32C183.196 1.12 181.956 1.44 181.116 2.24C180.236 3.04 179.756 3.96 179.636 5.04C179.516 6.28 179.876 7.4 180.756 8.4C181.596 9.4 183.196 10.56 185.556 11.96C187.796 13.24 189.396 14.28 190.396 15.04C191.436 15.8 192.196 16.76 192.716 17.96Z"/>
</svg>
